
<svg xmlns="http://www.w3.org/2000/svg"
     class="svg-snoweb svg-theme-light"
     x="0"
     y="0"
     width="100%"
     height="100%"
     viewBox="0 0 100 100"
     preserveAspectRatio="xMidYMid meet"
>
<defs>
    <style>
        
            
            
            
        

        .svg-fill-primary {
            fill: #090D49;
        }

        .svg-fill-secondary {
            fill: #65CDAE;
        }

        .svg-fill-tertiary {
            fill: #E5E7EB;
        }

        .svg-stroke-primary {
            stroke: #090D49;
        }

        .svg-stroke-secondary {
            stroke: #65CDAE;
        }

        .svg-stroke-tertiary {
            stroke: #E5E7EB;
        }
    </style>
</defs>
    <path d="M64.1,18.2H81.8m0,0V35.9m0-17.7L60.6,39.4M25.3,18.2a7,7,0,0,0-7.1,7.1v3.5a53,53,0,0,0,53,53h3.5a7,7,0,0,0,7.1-7.1V63.2a3.6,3.6,0,0,0-2.4-3.4L63.5,54.5a3.5,3.5,0,0,0-4.3,1.8l-4,8A39.4,39.4,0,0,1,35.7,44.8l8-4a3.5,3.5,0,0,0,1.8-4.3L40.2,20.6a3.6,3.6,0,0,0-3.4-2.4Z"
      fill="none" class="svg-stroke-primary" stroke-linecap="round" stroke-linejoin="round" stroke-width="8"/>

</svg>